Coordinates
version=1
nRows=6
nColumns=36
inDegrees=yes

Units are S.I. units (second, meters, Newtons, ...)
If the header above contains a line with 'inDegrees', this indicates whether rotational values are in degrees (yes) or radians (no).

endheader
time	pelvis_tilt	pelvis_list	pelvis_rotation	pelvis_tx	pelvis_ty	pelvis_tz	hip_flexion_r	hip_adduction_r	hip_rotation_r	knee_angle_r	knee_angle_r_beta	ankle_angle_r	subtalar_angle_r	mtp_angle_r	hip_flexion_l	hip_adduction_l	hip_rotation_l	knee_angle_l	knee_angle_l_beta	ankle_angle_l	subtalar_angle_l	mtp_angle_l	lumbar_extension	lumbar_bending	lumbar_rotation	arm_flex_r	arm_add_r	arm_rot_r	elbow_flex_r	pro_sup_r	arm_flex_l	arm_add_l	arm_rot_l	elbow_flex_l	pro_sup_l
      1.46250000	     -8.13127893	     -0.52642065	     -0.34273893	     -0.94036492	      1.21808047	     -0.08151999	      3.57982583	      1.80205089	      0.26714515	      1.12435478	      0.01962369	      4.90048962	     -5.23535761	     -7.49999987	      4.26493709	     -0.48898379	     -0.94484498	      1.49547821	      0.02610102	      4.41312359	     -5.12169828	     -7.49999987	      1.73113083	      1.30287285	      2.11495503	     -4.57836956	     -3.03918192	     -4.90975266	     43.93039116	     79.31517249	     -1.55644603	     -4.28360692	      4.10348227	     29.06897631	     80.96651304
      1.46666670	     -8.08386461	     -0.55810835	     -0.34581575	     -0.94192266	      1.21542616	     -0.08231746	      3.56590894	      1.85164171	      0.28152726	      1.18485005	      0.02067953	      4.94635417	     -5.49360270	     -7.49999987	      4.28078553	     -0.51292004	     -1.03950182	      1.51633291	      0.02646500	      4.59968505	     -5.03916737	     -7.49999987	      1.53365062	      1.36388231	      2.36909166	     -4.89666549	     -3.11754249	     -5.32021281	     44.85939950	     82.15536762	     -1.31011268	     -4.40120288	      4.81468483	     29.17743773	     83.98796395
      1.47083330	     -8.08032306	     -0.55527359	     -0.34989948	     -0.94064994	      1.21979839	     -0.08171390	      3.55836687	      1.85350276	      0.27839290	      1.18716736	      0.02071998	      4.94910600	     -5.49581561	     -7.49999987	      4.30121582	     -0.51963429	     -1.03889697	      1.51250580	      0.02639821	      4.60050829	     -5.03947132	     -7.49999987	      1.53721154	      1.36349468	      2.36976227	     -4.89347187	     -3.11660334	     -5.31989648	     44.86153453	     82.15546405	     -1.31089102	     -4.39929628	      4.81386255	     29.17814401	     83.98797787
      1.47500000	     -8.06652311	     -0.58253416	     -0.33833864	     -0.94150798	      1.21754593	     -0.08212816	      3.60262522	      1.88517751	      0.06259441	      1.28978177	      0.02251094	      5.15891255	     -5.42708554	     -7.49999987	      4.36354309	     -0.54547252	     -1.02196018	      1.59380333	      0.02781712	      4.59402021	     -5.14445939	     -7.49999987	      1.39543719	      1.37580172	      2.09162935	     -4.71221686	     -3.10170584	     -5.21010599	     45.24948028	     83.14282084	     -1.59706870	     -4.18603664	      3.10624368	     29.77696837	     85.39846665
      1.47916670	     -8.38481082	     -0.58742317	     -0.40187434	     -0.94236154	      1.21636717	     -0.08087001	      4.06707319	      1.92504121	      0.41815901	      1.42596308	      0.02488775	      4.94655541	     -6.26530042	     -7.49999987	      4.80186851	     -0.59899843	     -1.27160294	      1.73159146	      0.03022197	      4.88891870	     -4.66259159	     -7.49999987	      1.91174970	      1.33711243	      2.01946215	     -4.56413095	     -3.07267432	     -4.64656361	     44.86900474	     79.04848592	     -1.67311204	     -4.15029942	      3.23122164	     29.65495016	     81.03431919
      1.48333330	     -8.28656089	     -0.61129153	     -0.35067152	     -0.94136571	      1.21682817	     -0.08185862	      3.97037409	      1.93382652	      0.07850185	      1.44631944	      0.02524304	      5.28511679	     -5.66298922	     -7.49999987	      4.74021064	     -0.59524177	     -1.01189873	      1.75191308	      0.03057665	      4.77478569	     -5.10401869	     -7.49999987	      1.60801500	      1.42225210	      2.03639567	     -4.73997966	     -3.07933879	     -5.12827897	     45.74136555	     82.60854097	     -1.57866671	     -4.25068829	      3.34689193	     29.87917850	     85.21074325
